# xmcd
#
# Track frame offsets:
#	150
#	15367
#	30497
#	44447
#	59567
#	83307
#	100397
#	116255
#	132567
#
# Disc length: 1987 seconds
#
# Revision: 5
# Processed by: cddbd v1.5.2PL0 Copyright (c) Steve Scherf et al.
# Submitted via: EasyCDDAExtractor 15.3.0.1
#
DISCID=6807c109
DTITLE=Pandora - Ilegal
DYEAR=1992
DGENRE=Latin
TTITLE0=Si Fuera Tu
TTITLE1=Rezo Una Oracion Por Ti
TTITLE2=Puede Ser Genial
TTITLE3=Desde El Dia Que Te Fuiste
TTITLE4=Con Una Pequeña Ayuda
TTITLE5=Matandome Suavemente
TTITLE6=Como Tu Sabes
TTITLE7=Por Que
TTITLE8=Pierdo El Control
EXTD=
EXTT0=
EXTT1=
EXTT2=
EXTT3=
EXTT4=
EXTT5=
EXTT6=
EXTT7=
EXTT8=
PLAYORDER=
